<?xml version="1.0" standalone="no"?>
<!DOCTYPE svg PUBLIC "-//W3C//DTD SVG 20010904//EN"
 "http://www.w3.org/TR/2001/REC-SVG-20010904/DTD/svg10.dtd">
<svg version="1.0" xmlns="http://www.w3.org/2000/svg"
 width="1280.000000pt" height="1954.000000pt" viewBox="0 0 1280.000000 1954.000000"
 preserveAspectRatio="xMidYMid meet">
<metadata>
Created by potrace 1.16, written by Peter Selinger 2001-2019
</metadata>
<g transform="translate(0.000000,1954.000000) scale(0.100000,-0.100000)"
fill="#000000" stroke="none">
<path d="M1950 19504 c-339 -42 -647 -150 -915 -319 -144 -91 -231 -161 -371
-300 -186 -185 -296 -336 -405 -555 -147 -297 -214 -563 -226 -890 -18 -512
125 -965 439 -1389 56 -75 745 -770 3157 -3184 1697 -1698 3088 -3090 3091
-3093 2 -3 -1391 -1401 -3097 -3107 -2218 -2219 -3121 -3129 -3172 -3195 -308
-404 -458 -876 -438 -1377 26 -619 299 -1159 807 -1589 292 -248 629 -403
1025 -473 141 -24 528 -24 670 0 350 61 656 192 945 405 89 66 9340 9309 9340
9332 0 25 -9221 9237 -9316 9307 -289 213 -584 341 -949 409 -87 16 -498 28
-585 18z"/>
</g>
</svg>
